# xmcd
#
# Track frame offsets:
#	150
#	12895
#	27846
#	48095
#	65535
#	81922
#	96928
#	113679
#	129460
#	141912
#	156333
#	170108
#	188297
#	209699
#	221770
#	238059
#	251630
#	268075
#	282291
#	295032
#	315104
#	330342
#
# Disc length: 4613 seconds
#
# Revision: 1
# Processed by: cddbd v1.5.2PL0 Copyright (c) Steve Scherf et al.
# Submitted via: audiograbber 1.82.02
#
DISCID=3d120316
DTITLE=Various Artist - Summer Party
DYEAR=2008
DGENRE=Country
TTITLE0=Steve Forde - Summers Little Angel
TTITLE1=Big and Rich - Save A Horse, Ride A Cowboy
TTITLE2=Kenny Chesney - Beer In Mexico
TTITLE3=James Blundell - Down On The Farm
TTITLE4=Sunny Cowgirls - Cutting Up B and S Style
TTITLE5=Marty Stuart - Now Thats Country
TTITLE6=Lee Kernaghan - Love Shack
TTITLE7=Shania Twain - Party For Two
TTITLE8=Emerson Drive - Fall Into Me
TTITLE9=Thea Fisher - Just The Excuse
TTITLE10=Mark Chesnutt - Bubba Shot The Jukebox
TTITLE11=Jetty Road - Real Smooth Cowboy
TTITLE12=Dwight Yoakam - Fast As You
TTITLE13=Jonan's Road - Giddy Up
TTITLE14=Adam Brand - Cigarettes and Whiskey
TTITLE15=Ronnie Rae Rivers - Cowboys Come Home
TTITLE16=Danielle Blakey - Driving Song
TTITLE17=Vince Gill - One More Last Chance
TTITLE18=Sugarland - Down To Mississippi
TTITLE19=Travis Collens - Start The Car
TTITLE20=Shedaisy - Passenger Seat
TTITLE21=Catherine Britt - Little Wildflower
EXTD=
EXTT0=
EXTT1=
EXTT2=
EXTT3=
EXTT4=
EXTT5=
EXTT6=
EXTT7=
EXTT8=
EXTT9=
EXTT10=
EXTT11=
EXTT12=
EXTT13=
EXTT14=
EXTT15=
EXTT16=
EXTT17=
EXTT18=
EXTT19=
EXTT20=
EXTT21=
PLAYORDER=
